<?xml version="1.0" encoding="UTF-8" standalone="no"?>
<!-- Created with Inkscape (http://www.inkscape.org/) -->

<svg
   width="207.26149mm"
   height="530.61902mm"
   viewBox="0 0 207.26149 530.61902"
   version="1.1"
   id="svg1"
   inkscape:version="1.4.2 (ebf0e940d0, 2025-05-08)"
   sodipodi:docname="farmer_common.svg"
   xml:space="preserve"
   xmlns:inkscape="http://www.inkscape.org/namespaces/inkscape"
   xmlns:sodipodi="http://sodipodi.sourceforge.net/DTD/sodipodi-0.dtd"
   xmlns:xlink="http://www.w3.org/1999/xlink"
   xmlns="http://www.w3.org/2000/svg"
   xmlns:svg="http://www.w3.org/2000/svg"><sodipodi:namedview
     id="namedview1"
     pagecolor="#ffffff"
     bordercolor="#999999"
     borderopacity="1"
     inkscape:showpageshadow="2"
     inkscape:pageopacity="0"
     inkscape:pagecheckerboard="0"
     inkscape:deskcolor="#d1d1d1"
     inkscape:document-units="mm"
     inkscape:zoom="0.35355339"
     inkscape:cx="260.2153"
     inkscape:cy="626.49661"
     inkscape:window-width="1920"
     inkscape:window-height="1011"
     inkscape:window-x="0"
     inkscape:window-y="0"
     inkscape:window-maximized="1"
     inkscape:current-layer="layer1"
     showgrid="false"><inkscape:grid
       id="grid29"
       units="mm"
       originx="-24.750025"
       originy="59.870911"
       spacingx="0.99999999"
       spacingy="0.99999999"
       empcolor="#0099e5"
       empopacity="0.30196078"
       color="#0099e5"
       opacity="0.14901961"
       empspacing="5"
       enabled="true"
       visible="false" /></sodipodi:namedview><defs
     id="defs1"><linearGradient
       id="linearGradient29"
       inkscape:collect="always"><stop
         style="stop-color:#ffcc00;stop-opacity:1;"
         offset="0"
         id="stop29" /><stop
         style="stop-color:#b08c00;stop-opacity:1;"
         offset="1"
         id="stop30" /></linearGradient><inkscape:perspective
       sodipodi:type="inkscape:persp3d"
       inkscape:vp_x="115.78737 : 435.36406 : 1"
       inkscape:vp_y="0 : 999.99996 : 0"
       inkscape:vp_z="130.65717 : 443.21888 : 1"
       inkscape:persp3d-origin="25.657153 : 393.71887 : 1"
       id="perspective28" /><inkscape:perspective
       sodipodi:type="inkscape:persp3d"
       inkscape:vp_x="-50.95421 : 458.17674 : 1"
       inkscape:vp_y="0 : 999.99996 : 0"
       inkscape:vp_z="159.04582 : 458.17674 : 1"
       inkscape:persp3d-origin="54.045797 : 408.67673 : 1"
       id="perspective17" /><inkscape:perspective
       sodipodi:type="inkscape:persp3d"
       inkscape:vp_x="55.699506 : 525.12451 : 1"
       inkscape:vp_y="488.33573 : 999.11709 : 0"
       inkscape:vp_z="127.66128 : 503.64195 : 1"
       inkscape:persp3d-origin="-54.094112 : 422.52504 : 1"
       id="perspective1" /><clipPath
       clipPathUnits="userSpaceOnUse"
       id="clipPath28"><path
         id="path29"
         style="fill:#ff0000;fill-opacity:1;fill-rule:nonzero;stroke:none;stroke-width:0.264583"
         d="m 92.369521,51.732365 v 63.020955 c 0.94375,-0.1549 1.70179,-0.12708 2.319239,0.0398 0.09829,-0.92981 0.213231,-1.85773 0.350366,-2.7838 1.968733,-0.13493 3.936614,-0.45771 5.905584,-0.54571 0.65632,-0.0293 1.31273,-0.0322 1.96939,0.006 0.34503,0.0202 0.16151,0.67292 0.21807,1.01389 0.51474,3.10298 0.6831,6.25896 1.24489,9.35602 0.0107,0.0628 0.0213,0.12578 0.032,0.18862 0.19423,-0.28452 0.38558,-0.57126 0.56999,-0.86248 0.71712,-1.06319 1.44205,-2.12145 2.24689,-3.12125 1.53978,-1.91279 3.17455,-2.73272 4.54804,-2.76676 1.32283,-0.0328 2.40346,0.66345 2.92334,1.81591 0.0245,-0.0111 0.0488,-0.022 0.0734,-0.0331 0.59158,-0.28743 0.28112,-0.13779 0.93172,-0.44856 1.32945,-0.63501 2.53003,-0.8991 3.55638,-0.88676 4.44751,0.0534 5.62527,5.29788 -0.13591,8.04912 -0.69247,0.33069 -0.32326,0.15452 -1.10743,0.5302 -0.90184,0.40163 -1.7918,0.83045 -2.69544,1.22835 0.39645,0.13626 1.03414,0.0921 1.99471,-0.19689 0.0447,-0.0134 0.15965,-0.0551 0.17363,-0.0563 h 5.3e-4 5.3e-4 5.3e-4 v 5.3e-4 h -5.3e-4 v 5.3e-4 c -0.001,10e-4 -0.004,0.003 -0.009,0.006 -0.7016,0.35331 -1.43414,0.65829 -2.14406,0.99632 -0.8578,0.34696 -1.44353,1.03689 -2.06499,1.69137 -0.38611,0.48716 -0.94146,0.9058 -1.1963,1.48828 -0.075,0.23475 -0.10189,0.48467 -0.14367,0.72864 -0.0928,0.57062 -0.14191,1.14692 -0.17983,1.72341 -0.005,0.22922 -0.0344,0.45935 -0.0284,0.68885 v 5e-4 l 5.3e-4,5.3e-4 v 5.3e-4 h 5.3e-4 v 5e-4 h 5.3e-4 5.3e-4 v -5e-4 h 5.3e-4 l 5.3e-4,-5.3e-4 h 5.3e-4 c 0.006,-0.004 0.0159,-0.0158 0.0212,-0.0181 l 5.2e-4,-5e-4 h 5.3e-4 5.3e-4 5.3e-4 5.3e-4 v 5e-4 h 5.3e-4 v 5.3e-4 l 5.3e-4,5.3e-4 c 0.0202,0.0787 0.0293,0.16032 0.0439,0.24029 0.0747,0.52685 0.2936,0.97391 0.53071,1.43919 0.30214,0.60764 0.61961,1.20727 0.92966,1.81074 H 281.79672 V 51.732365 Z m 0.522966,78.818965 c -0.185014,0.0751 -0.359109,0.14581 -0.522966,0.21239 v 5.31337 h 7.776789 c -0.230282,-0.38685 -0.446187,-0.81522 -0.643891,-1.28675 -0.279868,-0.66749 -0.532551,-1.34385 -0.762744,-2.02726 -1.872065,-0.0577 -3.753652,-0.86156 -5.404321,-1.7508 -0.198031,-0.10668 -0.338035,-0.26771 -0.442867,-0.46095 z" /></clipPath><linearGradient
       inkscape:collect="always"
       xlink:href="#linearGradient29"
       id="linearGradient30"
       x1="92.369522"
       y1="93.904732"
       x2="281.79672"
       y2="93.904732"
       gradientUnits="userSpaceOnUse" /></defs><g
     inkscape:label="Ebene 1"
     inkscape:groupmode="layer"
     id="layer1"
     transform="translate(-83.389191,-51.732365)"><g
       id="g1"
       transform="matrix(6.8515558,0,0,6.8515558,-487.95656,-804.59961)"><path
         style="fill:#24221c;fill-opacity:1;stroke:#000000;stroke-width:0;stroke-dasharray:none;stroke-opacity:1"
         d="m 95.289684,181.60329 v -25.12112 h 3.349483 v 25.12112 z"
         id="path47" /><circle
         style="fill:#24221c;fill-opacity:1;stroke:#000000;stroke-width:0;stroke-dasharray:none;stroke-opacity:1"
         id="path48"
         cx="96.96093"
         cy="146.43375"
         r="10.885814" /><path
         style="fill:#24221c;fill-opacity:1;stroke:#000000;stroke-width:0"
         d="m 95.889134,179.77795 -12.499935,21.65068 1.732054,0.99999 12.499921,-21.65068 z"
         id="path3" /><path
         style="fill:#24221c;fill-opacity:1;stroke:#000000;stroke-width:0"
         d="m 98.389201,179.77795 12.499929,21.65068 -1.73205,0.99999 -12.499919,-21.65068 z"
         id="path3-3" /><path
         style="fill:#24221c;fill-opacity:1;stroke:#000000;stroke-width:0"
         d="m 98.139786,167.59624 15.499694,0.0141 -6.2e-4,1.99999 -15.499691,-0.0141 z"
         id="path3-3-1" /><path
         style="fill:#24221c;fill-opacity:1;stroke:#000000;stroke-width:0"
         d="m 95.289684,167.70726 -4.069395,14.95597 1.929518,0.52623 4.069395,-14.95597 z"
         id="path3-3-1-3" /></g><path
       style="fill:url(#linearGradient30);stroke:#2e2e2e;stroke-width:0"
       d="m 106.67252,136.07709 168.275,-0.52917 5.82022,-1.12253 1.02898,-3.64823 -1.6838,-5.70621 -6.64164,-1.59025 -35.92103,-0.65481 2.24507,-13.47038 -1.49671,-24.695706 -7.48355,-26.940769 -23.94735,-5.986838 -24.6957,8.231901 -10.47697,13.470385 -3.74177,21.702286 -7.48355,23.198991 -30.68254,5.23849 -37.417733,0.74835 z"
       id="path1"
       clip-path="url(#clipPath28)"
       transform="matrix(0.86358953,0,0,0.86358953,11.375159,7.0568361)" /></g></svg>
