<?xml version="1.0" encoding="UTF-8" standalone="no"?>
<!-- Created with Inkscape (http://www.inkscape.org/) -->

<svg
   width="200.99983mm"
   height="500.3165mm"
   viewBox="0 0 200.99983 500.3165"
   version="1.1"
   id="svg1"
   inkscape:version="1.4.2 (ebf0e940d0, 2025-05-08)"
   sodipodi:docname="bow_common.svg"
   xml:space="preserve"
   xmlns:inkscape="http://www.inkscape.org/namespaces/inkscape"
   xmlns:sodipodi="http://sodipodi.sourceforge.net/DTD/sodipodi-0.dtd"
   xmlns:xlink="http://www.w3.org/1999/xlink"
   xmlns="http://www.w3.org/2000/svg"
   xmlns:svg="http://www.w3.org/2000/svg"><sodipodi:namedview
     id="namedview1"
     pagecolor="#ffffff"
     bordercolor="#999999"
     borderopacity="1"
     inkscape:showpageshadow="2"
     inkscape:pageopacity="0"
     inkscape:pagecheckerboard="0"
     inkscape:deskcolor="#d1d1d1"
     inkscape:document-units="mm"
     showgrid="false"
     inkscape:zoom="0.1767767"
     inkscape:cx="-214.96046"
     inkscape:cy="1032.3759"
     inkscape:window-width="1920"
     inkscape:window-height="1011"
     inkscape:window-x="0"
     inkscape:window-y="0"
     inkscape:window-maximized="1"
     inkscape:current-layer="layer1"><inkscape:grid
       id="grid1"
       units="mm"
       originx="-39.999999"
       originy="-6.873999"
       spacingx="0.99999998"
       spacingy="1"
       empcolor="#0099e5"
       empopacity="0.30196078"
       color="#0099e5"
       opacity="0.14901961"
       empspacing="5"
       enabled="true"
       visible="false" /></sodipodi:namedview><defs
     id="defs1"><linearGradient
       id="linearGradient112"
       inkscape:collect="always"><stop
         style="stop-color:#c87137;stop-opacity:1;"
         offset="0"
         id="stop112" /><stop
         style="stop-color:#6c3d1e;stop-opacity:1;"
         offset="1"
         id="stop113" /></linearGradient><linearGradient
       id="linearGradient109"
       inkscape:collect="always"><stop
         style="stop-color:#5d5252;stop-opacity:1;"
         offset="0"
         id="stop109" /><stop
         style="stop-color:#857676;stop-opacity:1;"
         offset="1"
         id="stop110" /></linearGradient><linearGradient
       inkscape:collect="always"
       xlink:href="#linearGradient109"
       id="linearGradient110"
       x1="150"
       y1="150.62498"
       x2="155"
       y2="150.62498"
       gradientUnits="userSpaceOnUse"
       gradientTransform="matrix(1,0,0,1.0043885,0,-1.2863899)" /><linearGradient
       inkscape:collect="always"
       xlink:href="#linearGradient112"
       id="linearGradient113"
       x1="0"
       y1="146.87457"
       x2="105.04565"
       y2="146.87457"
       gradientUnits="userSpaceOnUse" /><clipPath
       clipPathUnits="userSpaceOnUse"
       id="clipPath140"><path
         id="path141"
         style="fill:#ff0000;fill-opacity:1;fill-rule:nonzero;stroke:none;stroke-width:0.264583"
         d="m 100.00728,3.7490177 -10e-4,5.292e-4 L 2.8387926e-5,3.750076 V 289.99975 H 101.74844 c 0.0235,-0.10512 0.0491,-0.21159 0.0763,-0.31935 0.31185,-1.2345 0.51481,-2.48833 0.68213,-3.74965 0.12665,-0.98343 0.18582,-1.97377 0.22328,-2.96415 0.0335,-1.03648 0.0417,-2.07349 0.0487,-3.11039 -0.0168,-1.18804 -0.002,-2.36699 0.15722,-3.54553 0.16918,-1.01525 0.22703,-2.04374 0.27449,-3.07062 0.0515,-1.26529 0.0704,-2.5315 0.0835,-3.79769 0.0124,-1.48789 0.0139,-2.97591 0.0159,-4.46382 0.008,-0.19581 0.0139,-0.39113 0.0164,-0.58652 -0.20356,-0.0214 -0.41191,-0.0418 -0.62477,-0.06 h -5.2e-4 -5.3e-4 -5.2e-4 -5.2e-4 -0.001 c -0.0463,-0.0545 -0.1839,-1.1475 -0.19921,-1.27743 -0.12346,-0.90364 -0.20405,-1.80984 -0.21713,-2.7218 -0.009,-0.41714 0.009,-0.83254 0.0399,-1.24747 -0.13825,-1.67745 -0.2778,-3.35491 -0.3759,-5.03535 -0.05,-0.9285 -0.10011,-1.85797 -0.17719,-2.78484 -0.20587,-1.0644 -0.39468,-2.13236 -0.56895,-3.20239 -0.31205,-1.91604 -0.25363,-2.7985 0.54848,-3.20394 -0.001,-0.31284 -0.002,-0.62558 -0.003,-0.93845 -0.003,-1.22558 -0.004,-2.45119 -0.005,-3.67677 -5.3e-4,-1.24852 -10e-4,-2.49699 -10e-4,-3.74551 -7e-5,-1.52014 10e-6,-3.04031 0,-4.56045 -1e-5,-1.85931 10e-6,-3.71864 0,-5.57795 v -4.15634 -5.27668 c -0.0597,-2.07799 0.11331,-4.14867 0.25042,-6.21977 0.1343,-2.23881 0.17537,-4.48197 0.21253,-6.72414 0.0309,-2.10131 0.0418,-4.20301 0.0507,-6.30452 10e-4,-0.053 0.003,-0.1057 0.004,-0.15865 -0.23518,-0.66095 -0.37878,-1.45106 -0.39381,-2.36988 -0.009,-0.57472 0.005,-1.14908 0.0318,-1.72289 -0.0307,-0.18617 -0.0625,-0.37196 -0.0953,-0.55759 -0.3502,-1.96143 -0.68209,-3.92731 -0.97558,-5.89835 -0.22042,-1.79087 -0.55209,-3.56459 -0.79018,-5.35316 -0.142785,-1.56774 -0.278511,-3.13155 -0.47012,-4.69429 -0.209121,-1.56015 -0.290511,-3.13228 -0.349771,-4.70411 -0.07135,-1.62105 -0.08688,-3.23645 0.04353,-4.85396 0.154607,-1.57362 0.191113,-3.15558 0.348235,-4.7284 0.245431,-1.82397 0.326844,-3.66422 0.406616,-5.50147 0.0804,-1.88798 0.13486,-3.77384 0.022,-5.66064 -0.05412,-1.63709 -0.311875,-3.24983 -0.584834,-4.86068 -0.394388,-2.48312 -0.719604,-4.97351 -0.949454,-7.47758 -0.214313,-2.47736 -0.294557,-4.96286 -0.34926,-7.44812 -0.03617,-2.70514 -0.09772,-5.41114 -0.0215,-8.11579 0.0605,-2.87634 0.344045,-5.73615 0.711834,-8.58655 0.388381,-2.57845 0.888076,-5.13709 1.372974,-7.69824 0.52424,-2.65529 1.0314,-5.3143 1.52712,-7.975225 0.45794,-2.38138 0.66191,-4.798378 0.80811,-7.216098 0.19191,-2.540728 0.11882,-5.08217 0.0215,-7.624342 -0.026,-2.299319 -0.28021,-4.583911 -0.4609,-6.873483 -0.15459,-2.160389 -0.23218,-4.325194 -0.29242,-6.490041 -0.0435,-1.635451 -0.0546,-3.271261 -0.0645,-4.907196 -0.008,-1.57934 -0.0103,-3.158852 -0.0113,-4.738211 0.0564,-1.661581 -0.0531,-3.313951 -0.16951,-4.969722 -0.13949,-1.871641 -0.21845,-3.747045 -0.27296,-5.622914 0.0127,-1.567207 -0.0784,-3.122512 -0.2284,-4.68085 -0.14837,-1.62189 -0.23466,-3.248752 -0.29293,-4.876189 0.0245,-1.667245 0.18128,-3.328252 0.28115,-4.991944 0.0486,-1.319024 0.2961,-2.618748 0.44913,-3.927406 0.20083,-1.122058 0.43629,-2.232959 0.54539,-3.368789 0.10071,-1.166338 0.13686,-2.336855 0.16798,-3.506763 0.0257,-1.042048 0.0304,-2.084623 0.0353,-3.12694 0.0569,-1.040872 -0.0947,-2.069732 -0.21048,-3.101102 -0.13157,-1.108873 -0.19413,-2.224124 -0.2412,-3.339331 -0.0323,-0.849817 -0.0454,-1.700408 -0.0543,-2.550749 -0.006,-0.690817 -0.008,-1.381384 -0.009,-2.072225 -5.3e-4,-0.680105 -7.9e-4,-1.3600796 -10e-4,-2.0401855 -1.4e-4,-0.7385222 2e-5,-1.4773645 0,-2.2158854 0,-0.071614 10e-6,-0.1433674 0,-0.214974 -0.0883,-0.017359 -0.17211,-0.048956 -0.2412,-0.0894 -0.0993,-0.058106 -0.16527,-0.1501397 -0.23096,-0.2397786 -0.1096,-0.1538555 -0.1877,-0.3263477 -0.25811,-0.5007446 -0.0245,-0.062395 -0.0472,-0.1255176 -0.0681,-0.1891359 -0.12321,0.035008 -0.29518,0.042977 -0.4102,-0.017052 -0.0418,-0.021804 -0.0807,-0.048451 -0.11983,-0.074931 0.002,0.00169 -0.003,-0.00238 -0.007,-0.00517 h -5.3e-4 l -5.2e-4,-0.00103 h -5.3e-4 l -5.2e-4,-5.292e-4 h -5.3e-4 c -0.002,-0.00135 -0.005,-0.00254 -0.006,-0.0031 -7.8e-4,-6.086e-4 -0.002,-0.0014 -0.003,-0.00206 -0.003,-0.0018 -0.005,-0.00385 -0.008,-0.00568 -0.004,-0.00318 -0.01,-0.00556 -0.0133,-0.00878 -0.0349,-0.018648 -0.0378,-0.023707 -0.0937,-0.060462 -0.0717,-0.052411 -0.12503,-0.1193951 -0.17923,-0.1886191 -0.0526,-0.077232 -0.0861,-0.1641774 -0.105493,-0.2552814 -0.0099,-0.047468 -0.01306,-0.095841 -0.01434,-0.1441772 -0.001,-0.054777 -0.0013,-0.063328 0.01382,-0.1467612 -0.0061,-0.033183 -0.0095,-0.067083 -0.01177,-0.100769 -0.0013,-0.023249 -0.0029,-0.046487 -0.0031,-0.069763 -1.28e-4,-0.016687 2.1e-5,-0.033437 0,-0.050126 -0.0013,-0.038314 0.0028,-0.073408 0.0087,-0.1095542 -0.01353,-0.046437 -0.0221,-0.094444 -0.02765,-0.1426268 -0.0028,-0.029952 -0.004,-0.059854 -0.0046,-0.089917 -0.0016,-0.081479 0.0087,-0.1394618 0.03636,-0.2351278 0.0028,-0.00959 0.0061,-0.018822 0.01025,-0.027905 2e-5,-0.00491 0,-0.010078 0,-0.014986 3e-5,-0.01266 0,-0.025064 0,-0.037724 10e-6,-0.014859 0,-0.029581 0,-0.044442 v -0.051677 -0.040824 c 0,-0.055605 0.002,-0.1083876 0.008,-0.1586468 z m 0.0389,0.258382 c -0.003,0.00541 -0.0126,0.022344 -0.0169,0.029456 -0.004,0.00668 -0.009,0.01723 -0.0148,0.029455 0.0108,-0.019502 0.0226,-0.038746 0.0318,-0.058911 z m 0.21918,0.9673828 c -0.0131,0.016383 -0.0195,0.026321 -0.0205,0.029972 v 5.292e-4 5.291e-4 h 5.3e-4 v 5.292e-4 h 5.2e-4 l 5.3e-4,-5.292e-4 c 0.003,-0.00151 0.009,-0.00634 0.0154,-0.013952 7.9e-4,-0.00302 0.002,-0.00584 0.003,-0.00878 10e-6,3.704e-4 0,8.202e-4 0,0.00103 -4e-5,0.00114 9e-5,0.00241 0,0.00414 l 5.2e-4,-5.292e-4 c 2.6e-4,-0.00427 7.9e-4,-0.00864 0.001,-0.01292 z m -0.24223,0.06873 v 5.292e-4 h 5.3e-4 v -5.292e-4 z m 2.59999,257.9320675 c -7.9e-4,0.0307 -0.002,0.0614 -0.003,0.092 0.002,0.019 -0.005,0.0405 0.005,0.0569 h 5.2e-4 5.2e-4 5.3e-4 5.2e-4 5.3e-4 5.2e-4 5.3e-4 c 0.002,-0.007 0.002,-0.0315 0.002,-0.0414 -0.002,-0.0359 -0.005,-0.0717 -0.007,-0.10747 z" /></clipPath></defs><g
     inkscape:label="Ebene 1"
     inkscape:groupmode="layer"
     id="layer1"
     transform="translate(-39.999999,-6.873999)"><g
       id="g1"
       transform="matrix(1.7478246,0,0,1.7478246,-29.912985,-5.1405457)"><ellipse
         style="fill:#c87137;fill-opacity:0;stroke:url(#linearGradient113);stroke-width:10;stroke-dasharray:none;stroke-opacity:1"
         id="path40"
         cx="130"
         cy="146.875"
         rx="130"
         ry="143.125"
         clip-path="url(#clipPath140)"
         transform="matrix(1.0090851,0,0,1,50.000001,3.1249814)" /><path
         style="fill:url(#linearGradient110);stroke:#edd22c;stroke-width:0;stroke-dasharray:none;stroke-opacity:0"
         d="M 150,6.8742482 V 293.12497 h 5 V 6.8742482 Z"
         id="path24" /><path
         style="fill:#c87137;fill-opacity:0;stroke:#c87137;stroke-width:8.28313;stroke-dasharray:none;stroke-opacity:1"
         d="m 50.858436,190.85843 h -3.358437 l -3.358434,-5.10731 v -71.50225 l 3.358434,-5.10731 h 3.358437 z"
         id="path109" /></g></g></svg>
